<svg width="477" height="513" viewBox="0 0 477 513" fill="none" xmlns="http://www.w3.org/2000/svg">
<path d="M307.76 223.052L353.012 249.026V300.974L307.76 326.948L262.508 300.974V249.026L307.76 223.052Z" fill="#FFE6E6"/>
<path d="M255.746 135L300.998 160.974V212.922L255.746 238.896L210.494 212.922V160.974L255.746 135Z" fill="#FFE6E6"/>
<path d="M359.774 135L405.026 160.974V212.922L359.774 238.896L314.522 212.922V160.974L359.774 135Z" fill="#FFE6E6"/>
<path d="M255.746 311.104L300.998 337.078V389.026L255.746 415L210.494 389.026V337.078L255.746 311.104Z" fill="#FFE6E6"/>
<path d="M359.774 311.104L405.026 337.078V389.026L359.774 415L314.522 389.026V337.078L359.774 311.104Z" fill="#FFE6E6"/>
<path d="M204.252 223.052L249.504 249.026V300.974L204.252 326.948L159 300.974V249.026L204.252 223.052Z" fill="#FFE6E6"/>
<path d="M410.748 223.052L456 249.026V300.974L410.748 326.948L365.496 300.974V249.026L410.748 223.052Z" fill="#FFE6E6"/>
<path d="M146.927 248.031C216.958 292.551 175.32 338.192 179.316 395.531C189.017 534.715 467.621 456.225 341.57 292.551" stroke="#4F393B" stroke-width="10" stroke-linecap="round" stroke-linejoin="round" stroke-dasharray="20 50"/>
<path d="M70.2129 257.661C68.048 258.341 66.7886 258.779 65.5119 259.138C59.8337 260.758 53.8334 260.861 48.1104 259.437C40.7687 257.624 35.708 253.123 32.689 246.357C29.7548 239.842 30.7207 232.915 38.7846 228.554C43.8808 225.791 49.7427 224.458 55.2742 222.512C56.293 222.159 57.3591 221.945 58.185 221.721C58.7919 219.922 57.7859 219.189 56.9499 218.6C49.9905 213.586 47.5462 206.144 46.1679 198.224C45.8254 195.992 45.93 193.713 46.4758 191.52C49.1054 180.609 62.6362 171.789 73.6151 173.718C77.3162 174.324 80.4622 175.915 82.7447 179.026C84.4449 181.347 86.2451 183.589 88.3502 186.32C89.2137 184.094 89.911 182.458 90.4929 180.786C93.7295 171.423 100.182 165.2 109.25 161.51C110.487 160.946 111.754 160.449 113.045 160.023C115.405 159.287 117.895 159.066 120.345 159.377C122.795 159.688 125.148 160.522 127.245 161.823C132.357 164.805 134.908 168.889 136.728 174.273C140.411 185.032 139.056 195.103 133.663 204.916C133.206 205.901 132.798 206.907 132.442 207.932C134.571 207.582 136.678 207.107 138.752 206.508C144.53 204.466 150.65 203.573 156.766 203.878C161.793 203.997 166.574 206.058 170.105 209.628C175.273 214.908 176.044 224.543 171.662 230.97C169.209 234.662 166.006 237.796 162.26 240.166C158.515 242.537 154.313 244.09 149.93 244.725C147.542 245.117 145.153 245.458 142.032 245.929C143.004 247.376 143.421 248.398 144.169 249.042C151.02 254.973 155.264 262.648 158.272 270.993C159.688 274.879 159.367 278.795 156.284 282.38C154.052 284.992 151.865 287.439 148.841 289.13C145.067 291.305 140.589 291.897 136.387 290.778C129.456 289.023 123.246 285.947 118.364 280.572C116.275 278.206 114.186 275.84 111.679 273C111.232 273.886 110.878 274.815 110.624 275.774C109.466 284.933 106.483 293.399 100.739 300.712C94.5267 308.629 86.4761 312.252 76.3321 310.576C73.5741 310.106 68.2834 305.966 66.6804 302.644C64.6224 298.377 62.9595 293.971 62.6971 289.108C62.2188 279.003 63.7024 269.388 68.9435 260.55C69.2992 259.973 69.4971 259.324 70.2129 257.661ZM114.97 217.81C115.966 216.539 116.923 215.336 117.846 214.175C118.483 213.373 119.105 212.591 119.713 211.821C120.142 211.277 120.565 210.738 120.981 210.202C121.765 209.194 122.527 208.195 123.275 207.183C123.935 206.302 124.513 205.362 125.09 204.421L125.091 204.42C125.576 203.628 126.063 202.836 126.599 202.079C130.278 196.881 131.41 191.345 131.012 185.578C130.858 183.344 130.474 181.075 129.92 178.778C128.417 172.641 123.894 169.466 118.54 167.299C116.83 166.706 114.97 166.703 113.255 167.29C108.544 168.923 104.427 171.263 101.376 175.673C98.5694 179.767 97.5633 184.062 97.2868 188.453L97.2867 188.454C97.0987 191.441 97.2483 194.474 97.3985 197.519C97.4357 198.274 97.473 199.029 97.5052 199.785C98.9272 202.069 99.1373 204.61 99.3473 207.15C99.4322 208.177 99.517 209.203 99.6817 210.212C100.306 213.966 100.674 214.599 104.139 214.698C107.24 214.825 110.252 215.093 113.338 216.782C113.446 216.841 113.555 216.902 113.663 216.965C113.672 216.971 113.681 216.976 113.691 216.981C113.7 216.987 113.709 216.992 113.718 216.997C113.736 217.008 113.754 217.019 113.772 217.029C114.17 217.264 114.569 217.523 114.97 217.81ZM87.2953 251.717C86.651 252.005 86.0215 252.325 85.4094 252.676C79.6451 256.439 76.7456 262.431 73.9512 268.266C70.2194 275.993 69.6311 284.291 71.8026 292.68C72.7983 296.394 74.7509 299.78 77.466 302.501C79.5612 304.683 81.945 305.494 84.7569 303.97C86.545 303.034 88.2843 302.008 89.968 300.895C90.6004 300.461 91.1914 299.998 91.7461 299.51C91.7611 299.496 91.7762 299.483 91.7912 299.47C96.1961 295.568 98.3091 290.08 100.781 284.885C101.709 282.844 102.299 280.666 102.528 278.437C103.192 272.612 103.038 266.725 102.071 260.946C101.74 259.523 101.305 258.127 100.769 256.769C98.1839 256.125 95.9155 255.791 93.8388 254.992C91.5982 254.017 89.4121 252.922 87.2901 251.711L87.2953 251.717ZM91.1586 217.663C90.9227 216.19 90.5751 214.737 90.1188 213.317C89.2829 211.15 88.4074 209.005 87.5326 206.861L87.5323 206.86C86.1884 203.567 84.8463 200.278 83.6523 196.92C82.1876 192.79 79.4819 189.575 76.7764 186.359C76.1577 185.624 75.539 184.888 74.9352 184.142C74.0268 183.17 72.8799 182.452 71.6077 182.059C66.334 180.209 56.9732 184.452 54.7919 189.536C54.6105 189.96 54.5024 190.412 54.4721 190.871C54.1487 195.073 54.3871 199.112 55.7418 202.76C56.4948 204.788 57.5926 206.694 59.1304 208.441C59.7418 209.135 60.4227 209.804 61.1792 210.445C66.5656 215.016 72.7606 218.316 79.2199 221.066C83.6216 222.95 85.8807 222.76 89.1261 219.749C89.2581 219.627 89.3916 219.5 89.527 219.368C89.5431 219.352 89.5592 219.336 89.5754 219.321C90.0744 218.832 90.5987 218.281 91.1586 217.663ZM121.95 232.995C124.467 234.358 126.99 234.972 129.507 235.37C130.527 235.531 131.546 235.657 132.563 235.782L132.564 235.782L132.565 235.783C133.07 235.845 133.573 235.907 134.077 235.973C143.27 237.358 152.672 235.742 160.888 231.366C162.816 230.413 164.463 228.972 165.664 227.188C166.866 225.403 167.58 223.337 167.736 221.193C167.937 219.957 167.742 218.689 167.18 217.571C166.843 216.901 166.383 216.305 165.83 215.811C165.46 215.482 165.049 215.198 164.605 214.969C160.22 212.524 155.659 210.992 150.421 211.574C140.835 212.669 132.104 216.167 123.697 220.631C122.162 221.45 120.992 222.946 119.575 224.197L121.95 232.995ZM119.96 244.5L111.49 253.398C114.041 260.627 117.262 267.126 121.887 272.358C125.631 276.594 130.296 280 136.27 282.291C137.508 282.83 138.799 283.235 140.124 283.499C143.384 283.989 146.737 283.387 148.937 281.087C151.348 278.558 150.319 275.288 149.251 272.178C147.45 266.947 144.257 262.66 140.987 258.336C140.39 257.544 139.771 256.787 139.132 256.062C139.131 256.061 139.129 256.06 139.128 256.058C134.684 251.027 129.219 247.587 122.777 245.373C121.858 245.057 120.919 244.767 119.96 244.5ZM80.7949 230.297C78.6194 229.954 76.5326 229.59 74.4782 229.27C72.7117 228.995 70.969 228.753 69.2146 228.583C66.5546 228.332 63.6775 228.061 61.1676 228.709C56.7817 229.861 52.4725 231.354 48.1748 232.843L48.1745 232.843C46.9494 233.268 45.7253 233.692 44.5005 234.108C43.861 234.329 43.2474 234.62 42.6708 234.976C38.7705 237.348 37.5527 241.018 39.1499 244.631C39.4985 245.419 39.9812 246.205 40.5993 246.973C42.9831 249.9 45.8929 251.774 49.7232 252.108C54.1813 252.519 58.7106 253.837 63.0717 252.071C68.0766 250.041 72.9374 247.634 77.8411 245.347C79.6827 244.469 81.3652 243.362 82.0917 241.089L82.0897 241.072L80.7949 230.297ZM109.761 225.608C108.792 224.377 107.562 223.376 106.16 222.676C104.758 221.976 103.217 221.595 101.649 221.56C98.6685 221.412 96.6958 223.122 94.428 224.629C93.9981 224.915 93.5987 225.222 93.2296 225.547C90.3385 228.094 89.303 231.755 89.9806 235.329C89.9906 235.382 90.0009 235.435 90.0117 235.488C90.1658 236.243 90.3964 236.994 90.7023 237.729C91.7427 240.445 93.0843 243.035 94.7019 245.451C95.7372 246.906 97.0515 247.848 98.5586 248.286C99.9246 248.684 101.449 248.668 103.067 248.245C108.737 246.765 112.243 242.428 112.33 236.551C112.363 233.154 112.107 229.782 110.709 227.091C110.653 226.983 110.595 226.877 110.535 226.771C110.306 226.366 110.049 225.978 109.761 225.608Z" fill="black"/>
<path fill-rule="evenodd" clip-rule="evenodd" d="M91.1586 217.663C90.9299 216.191 90.5898 214.739 90.1411 213.319C89.3078 211.158 88.4335 209.017 87.56 206.879C86.2113 203.576 84.8648 200.279 83.6746 196.922C82.2099 192.792 79.5042 189.576 76.7987 186.36C76.18 185.625 75.5613 184.89 74.9575 184.144C74.0355 183.158 72.8685 182.434 71.575 182.046C66.3013 180.196 56.9144 184.41 54.7331 189.494C54.5517 189.917 54.4435 190.369 54.4132 190.829C54.123 195.053 54.379 199.105 55.7418 202.76C54.3871 199.112 54.1487 195.073 54.4721 190.871C54.5024 190.412 54.6105 189.96 54.7919 189.536C56.9732 184.452 66.334 180.209 71.6077 182.059C72.8799 182.452 74.0268 183.17 74.9352 184.142C75.539 184.888 76.1577 185.624 76.7764 186.359C79.4819 189.575 82.1876 192.79 83.6523 196.92C84.8463 200.278 86.1884 203.567 87.5323 206.86L87.5326 206.861C88.4074 209.005 89.2829 211.15 90.1188 213.317C90.5751 214.737 90.9227 216.19 91.1586 217.663ZM79.2303 221.078C83.6233 222.952 85.881 222.76 89.1261 219.749C85.8807 222.76 83.6216 222.95 79.2199 221.066C72.7606 218.316 66.5656 215.016 61.1792 210.445C60.4227 209.804 59.7418 209.135 59.1304 208.441C59.7447 209.139 60.4291 209.812 61.1896 210.457C66.5761 215.028 72.7867 218.345 79.2303 221.078Z" fill="#FFC45F"/>
<path fill-rule="evenodd" clip-rule="evenodd" d="M82.1004 241.039L80.7949 230.297L82.0897 241.072C82.0933 241.061 82.0969 241.05 82.1004 241.039ZM42.6736 234.931C38.7204 237.346 37.5024 241.018 39.1499 244.631C37.5527 241.018 38.7705 237.348 42.6708 234.976C43.2474 234.62 43.861 234.329 44.5005 234.108C45.7253 233.692 46.9494 233.268 48.1745 232.843L48.1748 232.843C52.4725 231.354 56.7817 229.861 61.1676 228.709C63.6775 228.061 66.5546 228.332 69.2146 228.583C70.969 228.753 72.7117 228.995 74.4782 229.27C72.7119 228.986 70.968 228.728 69.2174 228.539C69.1013 228.528 68.9849 228.517 68.8681 228.506C66.3109 228.262 63.6161 228.005 61.1704 228.664C57.0513 229.747 53.011 231.142 48.9711 232.537C47.4831 233.051 45.9952 233.565 44.5034 234.063C43.8638 234.285 43.2502 234.576 42.6736 234.931Z" fill="#FFC45F"/>
<path fill-rule="evenodd" clip-rule="evenodd" d="M87.2901 251.711C86.634 252.001 85.9931 252.324 85.3699 252.679C79.6328 256.425 76.749 262.395 73.9514 268.187L73.9118 268.269C70.1682 276.006 69.6154 284.273 71.7632 292.683C72.7579 296.406 74.7143 299.801 77.4364 302.527C79.5316 304.709 81.9153 305.52 84.7272 303.996C86.5154 303.06 88.2547 302.034 89.9383 300.921C90.5819 300.48 91.1827 300.008 91.7461 299.51C91.1914 299.998 90.6004 300.461 89.968 300.895C88.2843 302.008 86.545 303.034 84.7569 303.97C81.945 305.494 79.5612 304.683 77.466 302.501C74.7509 299.78 72.7983 296.394 71.8026 292.68C69.6311 284.291 70.2194 275.993 73.9512 268.266C76.7456 262.431 79.6451 256.439 85.4094 252.676C86.0215 252.325 86.651 252.005 87.2953 251.717L87.2901 251.711Z" fill="#FFC45F"/>
<path fill-rule="evenodd" clip-rule="evenodd" d="M121.887 272.358C125.635 276.605 130.306 280.02 136.291 282.314C137.529 282.854 138.82 283.259 140.145 283.523C143.405 284.013 146.764 283.406 148.958 281.11C151.369 278.582 150.339 275.312 149.272 272.202C147.471 266.97 144.278 262.684 141.008 258.36C140.404 257.559 139.778 256.794 139.132 256.062C139.771 256.787 140.39 257.544 140.987 258.336C144.257 262.66 147.45 266.947 149.251 272.178C150.319 275.288 151.348 278.558 148.937 281.087C146.737 283.387 143.384 283.989 140.124 283.499C138.799 283.235 137.508 282.83 136.27 282.291C130.296 280 125.631 276.594 121.887 272.358Z" fill="#FFC45F"/>
<path fill-rule="evenodd" clip-rule="evenodd" d="M93.2296 225.547C90.3387 228.091 89.3025 231.753 89.9806 235.329C89.303 231.755 90.3385 228.094 93.2296 225.547ZM103.067 248.245C101.442 248.678 99.9211 248.69 98.5586 248.286C99.9246 248.684 101.449 248.668 103.067 248.245Z" fill="#FFC45F"/>
<path fill-rule="evenodd" clip-rule="evenodd" d="M129.507 235.37C130.527 235.531 131.546 235.657 132.563 235.782L132.564 235.782M132.564 235.782L132.565 235.783C133.07 235.845 133.573 235.907 134.077 235.973M134.077 235.973C143.27 237.358 152.672 235.742 160.888 231.366ZM160.888 231.366C162.816 230.413 164.463 228.972 165.664 227.188ZM165.664 227.188C166.866 225.403 167.58 223.337 167.736 221.193ZM167.736 221.193C167.937 219.957 167.742 218.689 167.18 217.571ZM167.18 217.571C166.843 216.901 166.383 216.305 165.83 215.811ZM165.83 215.811C166.405 216.313 166.881 216.924 167.228 217.614ZM167.228 217.614C167.79 218.731 167.985 219.999 167.784 221.235ZM167.784 221.235C167.628 223.379 166.914 225.445 165.712 227.23ZM165.712 227.23C164.511 229.014 162.864 230.455 160.936 231.408ZM160.936 231.408C152.719 235.784 143.317 237.4 134.124 236.015ZM134.124 236.015C133.591 235.94 133.057 235.87 132.525 235.8ZM132.525 235.8C131.517 235.667 130.512 235.535 129.507 235.37Z" fill="#FFC45F"/>
<path fill-rule="evenodd" clip-rule="evenodd" d="M131.012 185.578C131.41 191.345 130.278 196.881 126.599 202.079C126.063 202.836 125.576 203.628 125.091 204.42L125.09 204.421C124.513 205.362 123.935 206.302 123.275 207.183C122.527 208.195 121.765 209.194 120.981 210.202C121.768 209.194 122.538 208.199 123.301 207.201C123.962 206.32 124.539 205.38 125.117 204.439C125.603 203.647 126.089 202.855 126.626 202.097C130.313 196.888 131.427 191.352 131.012 185.578ZM119.713 211.821C119.105 212.591 118.483 213.373 117.846 214.175C116.923 215.336 115.966 216.539 114.97 217.81L115.566 217.059C117.033 215.211 118.402 213.488 119.713 211.821Z" fill="#FFC45F"/>
<path d="M99.6817 210.212C100.306 213.966 100.674 214.599 104.139 214.698C107.24 214.825 110.252 215.093 113.338 216.782C113.446 216.841 113.555 216.902 113.663 216.965L113.691 216.981L113.718 216.997C113.736 217.008 113.754 217.019 113.772 217.029C114.17 217.264 114.569 217.523 114.97 217.81C115.966 216.539 116.923 215.336 117.846 214.175C118.483 213.373 119.105 212.591 119.713 211.821C120.141 211.276 120.564 210.737 120.981 210.202C121.765 209.194 122.527 208.195 123.275 207.183C123.935 206.302 124.513 205.362 125.09 204.421L125.091 204.42C125.576 203.628 126.063 202.836 126.599 202.079C130.278 196.881 131.41 191.345 131.012 185.578C130.853 183.36 130.468 181.106 129.917 178.823C128.414 172.686 123.891 169.511 118.537 167.343C116.827 166.75 114.967 166.747 113.253 167.335C108.531 168.956 104.413 171.296 101.373 175.717C98.5761 179.798 97.5673 184.077 97.2868 188.453L97.2867 188.454C97.0987 191.441 97.2483 194.474 97.3985 197.519C97.4357 198.274 97.473 199.029 97.5052 199.785C98.9272 202.069 99.1373 204.61 99.3473 207.15C99.4322 208.177 99.517 209.203 99.6817 210.212Z" fill="#FFC45F"/>
<path d="M134.077 235.973C143.27 237.358 152.672 235.742 160.888 231.366C162.816 230.413 164.463 228.972 165.664 227.188C166.866 225.403 167.58 223.337 167.736 221.193C167.937 219.957 167.742 218.689 167.18 217.571C166.843 216.901 166.383 216.305 165.83 215.811C165.473 215.5 165.078 215.231 164.652 215.011C160.257 212.554 155.707 211.034 150.469 211.616C140.836 212.658 132.102 216.189 123.706 220.665C122.171 221.484 121.001 222.98 119.584 224.231L121.95 232.995C124.478 234.338 126.991 234.957 129.507 235.37C130.527 235.531 131.546 235.657 132.563 235.782L132.564 235.782L132.565 235.783C133.07 235.845 133.573 235.907 134.077 235.973Z" fill="#FFC45F"/>
<path d="M136.27 282.291C137.508 282.83 138.799 283.235 140.124 283.499C143.384 283.989 146.737 283.387 148.937 281.087C151.348 278.558 150.319 275.288 149.251 272.178C147.45 266.947 144.257 262.66 140.987 258.336C140.39 257.544 139.771 256.787 139.132 256.062L139.128 256.058C134.674 251.021 129.212 247.585 122.777 245.373C121.858 245.057 120.919 244.767 119.96 244.5L111.511 253.422C114.058 260.64 117.274 267.13 121.887 272.358C125.631 276.594 130.296 280 136.27 282.291Z" fill="#FFC45F"/>
<path d="M87.2953 251.717C86.651 252.005 86.0215 252.325 85.4094 252.676C79.6451 256.439 76.7456 262.431 73.9512 268.266C70.2194 275.993 69.6311 284.291 71.8026 292.68C72.7983 296.394 74.7509 299.78 77.466 302.501C79.5612 304.683 81.945 305.494 84.7569 303.97C86.545 303.034 88.2843 302.008 89.968 300.895C90.6004 300.461 91.1914 299.998 91.7461 299.51C91.7611 299.496 91.7762 299.483 91.7912 299.47C96.1678 295.575 98.2855 290.093 100.751 284.912C101.679 282.87 102.269 280.692 102.499 278.464C103.163 272.638 103.009 266.751 102.041 260.972C101.711 259.549 101.275 258.153 100.739 256.795C98.1543 256.151 95.891 255.823 93.8091 255.019C91.578 254.034 89.4019 252.929 87.2901 251.711L87.2953 251.717Z" fill="#FFC45F"/>
<path d="M69.2146 228.583C66.5546 228.332 63.6775 228.061 61.1676 228.709C56.7817 229.861 52.4725 231.354 48.1748 232.843L48.1745 232.843C46.9494 233.268 45.7253 233.692 44.5005 234.108C43.861 234.329 43.2474 234.62 42.6708 234.976C38.7705 237.348 37.5527 241.018 39.1499 244.631C39.1587 244.65 39.1675 244.669 39.1764 244.688C39.5265 245.442 40.0013 246.193 40.6022 246.929C42.986 249.856 45.8852 251.717 49.726 252.063C54.1998 252.493 58.703 253.78 63.0746 252.026C68.1003 250.021 72.9612 247.613 77.8439 245.302C79.6825 244.423 81.3517 243.328 82.0897 241.072L80.7949 230.297C78.628 229.966 76.5379 229.601 74.4782 229.27C72.7117 228.995 70.969 228.753 69.2146 228.583Z" fill="#FFC45F"/>
<path d="M91.1586 217.663C90.9227 216.19 90.5751 214.737 90.1188 213.317C89.2829 211.15 88.4074 209.005 87.5326 206.861L87.5323 206.86C86.1884 203.567 84.8463 200.278 83.6523 196.92C82.1876 192.79 79.4819 189.575 76.7764 186.359C76.1577 185.624 75.539 184.888 74.9352 184.142C74.0268 183.17 72.8799 182.452 71.6077 182.059C66.334 180.209 56.9732 184.452 54.7919 189.536C54.6105 189.96 54.5024 190.412 54.4721 190.871C54.1487 195.073 54.3871 199.112 55.7418 202.76C55.8172 202.962 55.8959 203.163 55.9781 203.363C56.7213 205.167 57.7487 206.869 59.1304 208.441C59.7418 209.135 60.4227 209.804 61.1792 210.445C66.5656 215.016 72.7606 218.316 79.2199 221.066C83.6216 222.95 85.8807 222.76 89.1261 219.749C89.2581 219.627 89.3916 219.5 89.527 219.368C89.5431 219.352 89.5592 219.336 89.5754 219.321C90.0744 218.832 90.5987 218.281 91.1586 217.663Z" fill="#FFC45F"/>
<path d="M90.7023 237.729C91.7427 240.445 93.0843 243.035 94.7019 245.451C95.7488 246.894 97.0579 247.842 98.5586 248.286C99.9246 248.684 101.449 248.668 103.067 248.245C108.737 246.765 112.219 242.449 112.306 236.572C112.359 233.157 112.107 229.783 110.709 227.091C110.653 226.983 110.595 226.877 110.535 226.771C110.306 226.366 110.049 225.978 109.761 225.608C108.791 224.377 107.56 223.377 106.157 222.678C104.753 221.979 103.212 221.599 101.643 221.565C98.6626 221.417 96.6899 223.127 94.4221 224.634C93.9944 224.919 93.597 225.224 93.2296 225.547C90.3385 228.094 89.303 231.755 89.9806 235.329C89.9906 235.382 90.0009 235.435 90.0117 235.488C90.1658 236.243 90.3964 236.994 90.7023 237.729Z" fill="#EE5A24"/>
<path d="M355.244 319.269C287.713 305.763 247.195 251.738 271.956 189.835L385.633 187.584C405.892 226.977 417.147 271.997 355.244 319.269Z" fill="#FFC45F"/>
<mask id="mask0_121_213" style="mask-type:alpha" maskUnits="userSpaceOnUse" x="264" y="187" width="138" height="133">
<path d="M355.244 319.266C287.713 305.76 247.195 251.735 271.956 189.832L385.633 187.581C405.892 226.974 417.147 271.994 355.244 319.266Z" fill="#FFC45F"/>
</mask>
<g mask="url(#mask0_121_213)">
<path d="M386.182 301.258C358.697 310.832 342.621 312.224 313.024 309.136L358.044 340.651L386.182 301.258Z" fill="#4F393B"/>
<path d="M398.563 260.739C350.389 273.807 323.804 278.378 278.133 275.371L293.89 299.007C332.709 303.342 355.695 300.33 398.563 286.626V260.739Z" fill="#4F393B"/>
<path d="M407.567 242.731C337.468 255.306 305.512 255.976 261.25 246.108L249.995 212.342C304.066 204.229 337.641 203.079 404.19 207.84L407.567 242.731Z" fill="#4F393B"/>
</g>
<path d="M307.395 188.709C291.257 188.709 257.874 270.871 345.663 310.264C404.19 279.876 388.433 242.734 368.172 184.207L307.395 188.709Z" fill="white" fill-opacity="0.18"/>
<path d="M274.76 190.356C254.251 231.016 240.646 271.209 219.315 249.629C190.564 220.543 226.1 194.851 274.76 190.356Z" fill="#A4DBF3" stroke="#A3DBF3" stroke-width="4.5"/>
<path d="M384.108 183.736C406.527 228.182 421.399 272.119 444.717 248.529C476.146 216.734 437.3 188.649 384.108 183.736Z" fill="#29A8DF" stroke="#29A8DF" stroke-width="4.5"/>
<path d="M384.139 183.601C404.648 224.26 418.253 264.453 439.584 242.873C468.335 213.787 432.799 188.096 384.139 183.601Z" fill="#A4DBF3" stroke="#A3DBF3" stroke-width="4.5"/>
<path d="M268.257 270.6C259.836 273.006 256.933 250.147 255.044 240.683C258.632 256.163 276.679 268.194 268.257 270.6Z" fill="#4F393B"/>
<path d="M281.767 187.585C255.044 198.412 250.21 216.46 255.044 240.683M255.044 240.683C256.933 250.147 259.836 273.006 268.257 270.6C276.679 268.194 258.632 256.163 255.044 240.683Z" stroke="#4F393B" stroke-width="6"/>
<path d="M443.583 140.313C454.343 123.134 461.044 95.8936 453.338 96.6718C439.024 98.1173 455.104 113.449 443.583 140.313Z" fill="#4F393B"/>
<path d="M381.68 193.213C408.965 178.104 429.484 162.823 443.583 140.313M443.583 140.313C454.343 123.134 461.044 95.8936 453.338 96.6718C439.024 98.1173 455.104 113.449 443.583 140.313Z" stroke="#4F393B" stroke-width="6" stroke-linecap="round"/>
<path d="M421.53 151.568C401.271 211.22 284.218 215.722 238.071 174.078C206.559 145.64 240.324 36.7656 319.109 36.7656C399.022 36.7656 433.761 115.551 421.53 151.568Z" fill="#FDB437"/>
<path d="M413.155 146.585C393.766 203.648 281.736 207.954 237.569 168.118C207.408 140.914 239.724 36.7656 315.13 36.7656C391.613 36.7656 424.862 112.132 413.155 146.585Z" fill="#FFC45F"/>
<path d="M273.907 129.056C289.536 129.056 302.044 115.863 302.044 99.7935C302.044 83.7236 289.536 70.5312 273.907 70.5312C258.278 70.5312 245.771 83.7236 245.771 99.7935C245.771 115.863 258.278 129.056 273.907 129.056Z" fill="white" stroke="#4F393B" stroke-width="4.5"/>
<circle cx="275.882" cy="97.5434" r="20.2592" fill="#4F393B"/>
<circle cx="280.384" cy="90.7912" r="9.00409" fill="white"/>
<path d="M401.091 100.919C401.091 115.304 389.919 126.807 376.328 126.807C362.738 126.807 351.566 115.304 351.566 100.919C351.566 86.5342 362.738 75.0312 376.328 75.0312C389.919 75.0312 401.091 86.5342 401.091 100.919Z" fill="white" stroke="#4F393B" stroke-width="4.5"/>
<circle cx="379.429" cy="99.7934" r="20.2592" fill="#4F393B"/>
<circle cx="383.931" cy="93.0412" r="9.00409" fill="white"/>
<mask id="mask1_121_213" style="mask-type:alpha" maskUnits="userSpaceOnUse" x="296" y="144" width="54" height="25">
<path d="M296.141 149.314C320.902 149.314 331.032 151.565 349.04 144.812C349.04 175.2 301.768 176.326 296.141 149.314Z" fill="#610E08"/>
</mask>
<g mask="url(#mask1_121_213)">
<path d="M296.507 150.825C296.295 150.058 296.897 149.314 297.693 149.316C320.563 149.402 330.741 151.292 347.338 145.431C348.164 145.14 349.038 145.765 348.981 146.64C347.159 174.679 303.404 175.742 296.507 150.825Z" fill="#610E08" stroke="#4F393B" stroke-width="4.5" stroke-linecap="round" stroke-linejoin="round"/>
<path d="M311.898 167.322C322.207 159.765 327.857 159.662 337.785 165.071L332.157 172.949L311.898 167.322Z" fill="#E4657A"/>
</g>
<path d="M396.273 141.251C397.3 144.774 391.468 148.15 383.717 150.412C375.967 152.673 368.478 150.375 367.45 146.852C366.422 143.329 372.255 139.953 380.006 137.691C388.032 136.734 395.245 137.728 396.273 141.251Z" fill="#EE5A24"/>
<path d="M391.634 141.333C392.504 144.317 387.564 147.176 381.001 149.091C374.437 151.006 368.095 149.06 367.224 146.076C366.353 143.093 371.293 140.234 377.857 138.318C384.655 137.507 390.763 138.35 391.634 141.333Z" fill="#FF8353"/>
<path d="M274.407 145.427C273.945 148.5 268.261 149.022 261.499 148.005C254.738 146.988 249.798 142.559 250.26 139.486C250.723 136.412 256.406 135.891 263.168 136.908C269.679 139.025 274.869 142.353 274.407 145.427Z" fill="#EE5A24"/>
<path d="M274.474 144.982C274.042 147.851 268.735 148.338 262.422 147.389C256.109 146.439 251.498 142.304 251.929 139.435C252.361 136.565 257.668 136.078 263.981 137.028C270.059 139.004 274.905 142.112 274.474 144.982Z" fill="#FF8353"/>
<path d="M285.563 61.9656C273.631 51.7805 261.955 53.5739 253.925 64.6147C261.76 50.5492 275.168 45.1284 285.486 61.8173" stroke="#4F393B" stroke-width="4.5" stroke-linecap="round" stroke-linejoin="round"/>
<path d="M277.788 15.0905C258.797 0.275146 235.363 0.405057 235.363 8.33709C235.363 24.094 268.725 11.9448 277.788 15.0905Z" fill="#4F393B"/>
<path d="M297.267 42.1022C282.542 1.53544 235.363 -2.91773 235.363 8.33709M235.363 8.33709C235.363 24.094 268.725 11.9448 277.788 15.0905C258.797 0.275146 235.363 0.405057 235.363 8.33709Z" stroke="#4F393B" stroke-width="4.5" stroke-linecap="round" stroke-linejoin="round"/>
<path d="M396.066 68.5231C385.056 55.107 371.335 54.7591 360.324 65.5574C371.684 51.3529 387.635 47.8215 396.008 68.3435" stroke="#4F393B" stroke-width="4.5" stroke-linecap="round" stroke-linejoin="round"/>
<path d="M373.281 22.5858C396.442 15.9769 418.116 24.8883 415.14 32.241C409.229 46.8471 382.862 23.0699 373.281 22.5858Z" fill="#4F393B"/>
<path d="M342.287 41.2672C371.155 9.18695 419.362 21.8082 415.14 32.241M415.14 32.241C409.229 46.8471 382.862 23.0699 373.281 22.5858C396.442 15.9769 418.116 24.8883 415.14 32.241Z" stroke="#4F393B" stroke-width="4.5" stroke-linecap="round" stroke-linejoin="round"/>
</svg>
